<svg width="221" height="212" viewBox="0 0 221 212" fill="none" xmlns="http://www.w3.org/2000/svg">
<path d="M154.097 15.8785C140.922 13.3059 127.049 15.0165 114.725 20.2874C102.338 25.5994 91.5346 34.3585 84.291 45.7827C77.2812 56.8394 73.8643 70.0512 74.0357 83.1062C74.115 89.6379 75.1264 96.1847 77.0496 102.434C78.9847 108.73 81.8582 114.911 85.7923 120.21C89.8461 125.667 95.3699 130.486 102.237 131.8C109.501 133.167 117.281 131.796 123.909 128.635C130.614 125.424 136.763 120.618 141.001 114.473C142.881 111.744 144.477 108.801 145.213 105.56C145.872 102.677 145.985 99.6201 145.632 96.6825C144.979 91.1708 142.655 84.9444 137.399 82.2855C134.692 80.9168 131.397 80.686 128.406 80.6753C124.93 80.6694 121.4 81.1139 118.069 82.0638C114.785 83.0017 111.669 84.6806 108.702 86.3366C105.407 88.1855 102.251 90.2519 99.2276 92.5229C93.2012 97.0694 87.7362 102.376 83.0499 108.303C78.4714 114.088 74.4012 120.522 71.6571 127.388C69.0015 133.997 67.7561 141.056 67.6446 148.162C67.3831 163.973 72.7849 179.143 79.6948 193.143C81.4836 196.766 83.3747 200.324 85.3252 203.861C85.7184 204.585 86.7748 204.737 87.427 204.317C88.156 203.848 88.2763 202.939 87.8831 202.215C80.4095 188.632 73.4089 174.238 71.3203 158.709C70.4286 152.068 70.3913 145.292 71.5702 138.692C72.7856 131.924 75.4011 125.702 78.8638 119.785C86.0933 107.412 96.6251 96.91 108.989 89.6781C111.826 88.0158 114.811 86.3305 117.941 85.293C120.927 84.3123 124.085 83.8533 127.213 83.7397C129.94 83.6491 133.183 83.7145 135.629 84.8174C137.785 85.7805 139.297 87.539 140.448 89.6375C142.946 94.2511 143.425 100.308 142.136 105.388C141.405 108.299 139.791 111.074 137.988 113.5C135.875 116.343 133.345 118.875 130.547 121.019C125.014 125.265 118.531 128.315 111.546 129.066C108.186 129.438 104.677 129.381 101.406 128.484C98.4574 127.668 95.7794 126.063 93.4576 124.085C88.6395 119.97 85.1704 114.353 82.6105 108.604C80.0954 102.952 78.4135 96.9089 77.6362 90.7541C76.0762 78.5201 77.8476 65.8426 82.9914 54.6121C88.2841 43.0507 97.1376 33.5385 108.059 27.072C118.943 20.6302 131.656 17.3146 144.296 17.7903C147.374 17.9079 150.43 18.2741 153.45 18.8632C155.376 19.2151 156.019 16.2515 154.097 15.8785Z" fill="#231F20"/>
<path d="M72.6893 203.925C72.8885 203.87 73.0832 203.835 73.2906 203.792C73.1636 203.819 73.0283 203.834 72.9013 203.861C74.2591 203.639 75.6499 203.72 77.0115 203.785C78.4406 203.842 79.8652 203.92 81.2981 204.011C82.1114 204.066 82.9329 204.134 83.7544 204.203C83.6237 204.196 83.5058 204.182 83.3669 204.162C84.3191 204.237 85.2704 204.366 86.2271 204.42C87.3986 204.498 88.5562 203.88 89.0172 202.769C89.3422 201.982 89.4533 201.114 89.6567 200.278C89.8337 199.513 90.0317 198.753 90.2589 198.01C90.509 197.162 90.78 196.318 91.0676 195.501C91.0192 195.622 90.9836 195.735 90.9434 195.87C91.7394 193.622 92.7154 191.456 93.8632 189.362C94.1892 188.772 94.5279 188.174 94.8877 187.581C95.0868 187.272 95.0948 186.779 94.9823 186.435C94.8743 186.071 94.5726 185.686 94.2207 185.533C93.8689 185.379 93.4567 185.301 93.0748 185.438C92.6801 185.584 92.3933 185.84 92.1723 186.2C89.9095 189.934 88.1941 193.986 87.0626 198.186C86.9057 198.757 86.7698 199.333 86.6338 199.908C86.5107 200.476 86.425 201.074 86.2388 201.627C86.2872 201.506 86.3228 201.393 86.363 201.258C86.31 201.401 86.2488 201.531 86.1621 201.677C86.2397 201.573 86.3091 201.456 86.3868 201.351C86.3219 201.447 86.2489 201.531 86.1676 201.601C86.2744 201.514 86.3813 201.427 86.4799 201.328C86.4114 201.39 86.3219 201.447 86.2369 201.484C86.3603 201.423 86.4836 201.361 86.6152 201.313C86.5174 201.358 86.4243 201.382 86.3311 201.405C86.4581 201.378 86.5933 201.363 86.7203 201.336C86.4919 201.374 86.2725 201.371 86.045 201.354C86.1756 201.361 86.2935 201.375 86.4324 201.394C82.6538 201.059 78.8798 200.702 75.0922 200.661C73.9957 200.644 72.9101 200.727 71.8384 201.001C71.4656 201.096 71.1057 201.436 70.9358 201.762C70.766 202.089 70.7078 202.56 70.8413 202.908C71.081 203.73 71.8633 204.131 72.6893 203.925Z" fill="#231F20"/>
</svg>
