<svg width="597" height="597" viewBox="0 0 597 597" fill="none" xmlns="http://www.w3.org/2000/svg">
<g clip-path="url(#clip0_4_510)">
<path opacity="0.34" d="M520.211 572H50.9981C45.0117 572 40.1619 567.15 40.1619 561.164C40.1619 555.177 45.0117 550.328 50.9981 550.328H520.211C526.197 550.328 531.047 555.177 531.047 561.164C531.047 567.15 526.197 572 520.211 572Z" fill="#F7BC8B"/>
<path d="M554.689 429.236H459.286C449.586 429.236 441.706 421.355 441.706 411.655C441.706 401.956 449.586 394.075 459.286 394.075H512.557C524.075 394.075 533.396 384.754 533.396 373.236C533.396 361.718 524.075 352.397 512.557 352.397H465.196C452.239 352.397 441.706 341.864 441.706 328.907C441.706 315.949 452.239 305.416 465.196 305.416H517.862C529.38 305.416 538.776 296.019 538.776 284.501C538.776 272.983 529.38 263.587 517.862 263.587H441.781H423.595C412.077 263.587 402.68 254.19 402.68 242.672C402.68 231.154 412.077 221.758 423.595 221.758H444.206C455.724 221.758 465.121 212.361 465.121 200.843C465.121 189.325 455.724 179.928 444.206 179.928H432.461H430.49H305.988H301.745H171.711H141.931C130.413 179.928 121.016 189.325 121.016 200.843C121.016 212.361 130.413 221.758 141.931 221.758H150.797C162.315 221.758 171.711 231.154 171.711 242.672C171.711 254.19 162.315 263.587 150.797 263.587H71.0033C62.1373 263.587 54.9385 270.785 54.9385 279.651C54.9385 288.517 62.1373 295.716 71.0033 295.716H155.04C164.285 295.716 171.787 303.218 171.787 312.463C171.787 321.708 164.285 329.21 155.04 329.21H20.9145C9.39638 329.21 0 338.606 0 350.124C0 361.642 9.39638 371.039 20.9145 371.039H150.797C162.315 371.039 171.711 380.435 171.711 391.953C171.711 403.471 162.315 412.868 150.797 412.868H72.3673C53.8776 412.868 38.8737 427.872 38.8737 446.361C38.8737 464.851 53.8776 479.855 72.3673 479.855H171.711H215.814H240.593H441.781H554.689C568.632 479.855 579.923 468.564 579.923 454.621C579.923 440.526 568.632 429.236 554.689 429.236Z" fill="#F0D09A"/>
<path d="M377.68 561.182H391.32V355.977H377.68V561.182Z" fill="#2F262D"/>
<path d="M325.766 397.333C323.569 392.408 325.766 386.573 330.768 384.3C332.056 383.769 333.42 383.466 334.784 383.466C338.648 383.466 342.21 385.739 343.801 389.301L392.299 498.572L374.264 506.604L325.766 397.333Z" fill="#FC9F6F"/>
<path d="M244.688 561.182H258.328V355.977H244.688V561.182Z" fill="#2F262D"/>
<path d="M307.807 369.372C260.901 369.372 222.937 333.605 222.937 289.578C222.937 278.212 225.513 267.375 230.06 257.524C200.203 269.876 179.365 297.989 179.365 330.574C179.365 374.676 217.329 410.367 264.235 410.367C299.017 410.367 328.873 390.741 341.983 362.627C331.45 366.947 319.932 369.372 307.807 369.372Z" fill="#F2F2F2"/>
<path d="M260.825 390.968C286.48 390.968 307.277 371.868 307.277 348.306C307.277 324.743 286.48 305.643 260.825 305.643C235.171 305.643 214.374 324.743 214.374 348.306C214.374 371.868 235.171 390.968 260.825 390.968Z" fill="#3B323A"/>
<path d="M177.167 355.959H73.2766C69.3362 355.959 66.0777 352.701 66.0777 348.76V341.94C66.0777 338 69.3362 334.741 73.2766 334.741H177.167C181.108 334.741 184.366 338 184.366 341.94V348.76C184.366 352.701 181.108 355.959 177.167 355.959Z" fill="#AFAFAF"/>
<path d="M301.063 315.797C286.514 315.797 274.692 303.976 274.692 289.427V263.056C274.692 252.978 266.584 244.87 256.506 244.87V289.427C256.506 314.054 276.435 333.984 301.063 333.984H337.966V315.797H301.063Z" fill="#EF9067"/>
<path d="M307.049 176.594C304.321 211.073 274.011 249.265 245.67 244.415C218.542 239.793 199.9 196.978 209.069 166.971C214.753 148.481 230.363 136.887 242.942 127.567C255.976 117.867 264.766 111.35 274.768 112.942C294.622 115.973 309.247 149.163 307.049 176.594Z" fill="#603936"/>
<path d="M268.782 274.726C268.251 274.119 264.008 269.194 263.25 268.512C261.28 260.404 257.264 251.462 258.097 241.005C252.414 236.837 243.018 231.533 232.333 232.29C229.15 232.518 225.816 233.276 224.149 233.654C214.904 235.776 209.069 239.186 207.175 240.323C204.599 241.914 203.31 242.672 201.795 244.187C197.703 248.431 196.718 253.584 196.187 256.615C191.641 282.985 195.202 308.295 195.657 310.493C196.49 314.509 197.627 318.07 197.627 318.07C199.521 324.057 201.795 327.77 202.401 329.437C205.432 337.621 212.328 354.822 219.602 367.932C224.907 368.765 236.955 374.07 244.912 371.342C257.036 367.174 282.043 357.853 290.985 355.959C279.845 343.456 269.615 329.513 266.963 312.539C266.281 308.143 265.675 303.824 265.22 299.581C266.281 299.05 272.722 295.792 274.01 289.275C275.374 282.228 269.843 275.938 268.782 274.726Z" fill="#F05364"/>
<path d="M241.417 258.731C248.028 256.887 251.646 249.151 249.5 241.452C247.352 233.752 240.252 229.006 233.642 230.849C227.031 232.693 223.413 240.428 225.559 248.128C227.706 255.827 234.806 260.574 241.417 258.731Z" fill="#EF9067"/>
<path d="M235.591 227.592C239.759 237.444 246.655 240.853 251.05 243.43C259.613 248.431 275.678 247.977 275.678 247.977C276.208 244.491 276.738 241.46 279.466 235.701C283.407 227.138 287.044 225.092 292.121 217.363C299.699 205.693 303.488 191.598 301.063 190.234C299.32 189.173 294.546 194.629 291.439 197.812C282.573 206.905 262.72 220.394 235.591 227.592Z" fill="#603936"/>
<path d="M235.288 249.265H232.106C225.134 249.265 219.527 243.657 219.527 236.686V188.87H244.685V239.792C244.685 245.021 240.441 249.265 235.288 249.265Z" fill="#EF9067"/>
<path d="M93.6478 561.182H107.288V355.977H93.6478V561.182Z" fill="#2F262D"/>
<path d="M177.542 561.182H191.181V355.977H177.542V561.182Z" fill="#494149"/>
<path d="M459.778 561.182H473.418V355.977H459.778V561.182Z" fill="#494149"/>
<path opacity="0.71" d="M219.527 193.947C221.194 208.421 231.196 220.394 244.685 224.94V185.991H219.527V193.947Z" fill="#D36B46"/>
<path d="M256.506 223.046C238.016 223.046 223.088 208.118 223.088 189.628V148.86C223.088 147.117 224.452 145.753 226.195 145.753H273.707C282.649 145.753 289.924 153.028 289.924 161.969V189.628C289.924 208.118 274.996 223.046 256.506 223.046Z" fill="#FC9F6F"/>
<path d="M289.924 184.854C289.545 185.763 288.635 186.369 287.65 186.369H272.95C271.586 186.369 270.449 185.233 270.449 183.869V175.609C270.449 174.245 271.586 173.108 272.95 173.108H287.65C288.635 173.108 289.545 173.714 289.924 174.624V171.441C289.242 171.062 288.484 170.835 287.65 170.835H272.95C270.297 170.835 268.176 172.957 268.176 175.609V183.869C268.176 186.521 270.297 188.643 272.95 188.643H287.65C288.484 188.643 289.242 188.415 289.924 188.036V184.854Z" fill="#DD9883"/>
<path d="M260.371 187.43H245.67C243.624 187.43 242.033 185.763 242.033 183.793V175.533C242.033 173.487 243.7 171.896 245.67 171.896H260.371C262.417 171.896 264.008 173.563 264.008 175.533V183.793C264.008 185.839 262.341 187.43 260.371 187.43Z" stroke="#DD9883" stroke-width="3" stroke-miterlimit="10" stroke-linecap="round" stroke-linejoin="round"/>
<path opacity="0.6" d="M243.851 195.993V155.225C243.851 153.482 245.215 152.118 246.958 152.118L274.389 142.494C271.434 138.63 278.936 145.829 273.707 145.829H226.195C224.452 145.829 223.088 147.193 223.088 148.936V189.704C223.088 208.193 238.016 223.121 256.506 223.121C256.885 223.121 257.264 223.121 257.718 223.121C249.307 216.983 243.851 207.132 243.851 195.993Z" fill="#EF9067"/>
<path d="M287.65 185.915H272.95C270.904 185.915 269.312 184.248 269.312 182.277V174.018C269.312 171.972 270.979 170.38 272.95 170.38H287.65C289.696 170.38 291.288 172.047 291.288 174.018V182.277C291.288 184.323 289.621 185.915 287.65 185.915Z" stroke="#F6CDF7" stroke-width="3" stroke-miterlimit="10" stroke-linecap="round" stroke-linejoin="round"/>
<path d="M265.22 206.223C260.977 206.223 257.567 202.813 257.567 198.645V195.084H272.722V198.645C272.722 202.813 269.388 206.223 265.22 206.223Z" fill="#FCFAFA"/>
<path d="M251.505 177.2H258.325" stroke="#161515" stroke-width="3" stroke-miterlimit="10" stroke-linecap="round" stroke-linejoin="round"/>
<path d="M277.269 177.2H284.089" stroke="#161515" stroke-width="3" stroke-miterlimit="10" stroke-linecap="round" stroke-linejoin="round"/>
<path d="M260.371 185.915H245.67C243.624 185.915 242.033 184.248 242.033 182.277V174.018C242.033 171.972 243.7 170.38 245.67 170.38H260.371C262.417 170.38 264.008 172.047 264.008 174.018V182.277C264.008 184.323 262.341 185.915 260.371 185.915Z" stroke="#F6CDF7" stroke-width="3" stroke-miterlimit="10" stroke-linecap="round" stroke-linejoin="round"/>
<path d="M270.525 115.063C261.356 103.242 245.746 103.469 242.866 103.166C240.29 102.636 226.119 103.318 215.738 106.046C191.792 112.411 175.121 134.083 175.121 158.938V190.765C175.121 212.134 190.883 238.05 211.115 244.794C222.33 248.583 234.758 251.462 237.713 251.008C222.709 223.197 224.755 206.754 228.999 197.13C239.153 173.639 268.933 174.473 276.284 148.329C276.435 147.572 281.058 128.703 270.525 115.063Z" fill="#754743"/>
<path d="M364.034 333.756C364.792 331.786 365.171 329.664 365.171 327.467C365.171 317.388 357.062 309.28 346.984 309.28C336.906 309.28 328.797 317.388 328.797 327.467C328.797 329.664 329.176 331.786 329.934 333.756H364.034Z" fill="#EF9067"/>
<path d="M305.685 334.741C304.17 327.77 295.759 322.466 285.529 322.466C275.374 322.466 266.887 327.77 265.372 334.741H305.685Z" fill="#F4EFF0"/>
<path d="M205.887 281.697C211.997 281.697 216.95 273.928 216.95 264.344C216.95 254.761 211.997 246.991 205.887 246.991C199.777 246.991 194.823 254.761 194.823 264.344C194.823 273.928 199.777 281.697 205.887 281.697Z" fill="#EF9067"/>
<path d="M239.38 316.403C224.831 316.403 213.01 304.582 213.01 290.033V257.828C213.01 252.826 208.918 248.734 203.917 248.734C198.915 248.734 194.823 252.826 194.823 257.828V290.033C194.823 314.661 214.753 334.59 239.38 334.59H276.284V316.403H257.794H239.38Z" fill="#FC9F6F"/>
<path d="M392.602 334.741H307.731C306.67 334.741 305.761 333.832 305.761 332.771C305.761 331.71 306.67 330.801 307.731 330.801H392.678C393.739 330.801 394.648 331.71 394.648 332.771C394.648 333.832 393.739 334.741 392.602 334.741Z" fill="white"/>
<path d="M392.602 332.771H307.731C306.974 332.771 306.367 332.392 305.988 331.786C305.837 332.089 305.685 332.392 305.685 332.771C305.685 333.832 306.595 334.741 307.656 334.741H392.602C393.663 334.741 394.572 333.832 394.572 332.771C394.572 332.392 394.496 332.089 394.269 331.786C393.966 332.317 393.36 332.771 392.602 332.771Z" fill="#F4EFF0"/>
<path d="M324.175 334.741H307.731C306.67 334.741 305.761 333.832 305.761 332.771C305.761 331.71 306.67 330.801 307.731 330.801H324.175C325.236 330.801 326.145 331.71 326.145 332.771C326.145 333.832 325.312 334.741 324.175 334.741Z" fill="#F4EFF0"/>
<path d="M386.615 330.801H380.402V329.361C380.402 328.604 381.008 327.922 381.841 327.922H385.176C385.933 327.922 386.615 328.528 386.615 329.361V330.801Z" fill="#F4EFF0"/>
<path d="M379.038 330.801H372.824V329.361C372.824 328.604 373.43 327.922 374.264 327.922H377.598C378.356 327.922 379.038 328.528 379.038 329.361V330.801Z" fill="#F4EFF0"/>
<path d="M371.46 330.801H365.246V329.361C365.246 328.604 365.853 327.922 366.686 327.922H370.02C370.778 327.922 371.46 328.528 371.46 329.361V330.801Z" fill="#F4EFF0"/>
<path d="M363.882 330.801H357.669V329.361C357.669 328.604 358.275 327.922 359.108 327.922H362.443C363.2 327.922 363.882 328.528 363.882 329.361V330.801Z" fill="#F4EFF0"/>
<path d="M356.305 330.801H350.091V329.361C350.091 328.604 350.697 327.922 351.531 327.922H354.865C355.623 327.922 356.305 328.528 356.305 329.361V330.801Z" fill="#F4EFF0"/>
<path d="M348.727 330.801H342.513V329.361C342.513 328.604 343.119 327.922 343.953 327.922H347.287C348.045 327.922 348.727 328.528 348.727 329.361V330.801Z" fill="#F4EFF0"/>
<path d="M341.149 330.801H334.935V329.361C334.935 328.604 335.542 327.922 336.375 327.922H339.709C340.467 327.922 341.149 328.528 341.149 329.361V330.801Z" fill="#F4EFF0"/>
<path d="M333.571 330.801H327.358V329.361C327.358 328.604 327.964 327.922 328.797 327.922H332.132C332.889 327.922 333.571 328.528 333.571 329.361V330.801Z" fill="#F4EFF0"/>
<path d="M325.994 330.801H319.78V329.361C319.78 328.604 320.386 327.922 321.22 327.922H324.554C325.312 327.922 325.994 328.528 325.994 329.361V330.801Z" fill="#F4EFF0"/>
<path d="M318.416 330.801H312.202V329.361C312.202 328.604 312.808 327.922 313.642 327.922H316.976C317.734 327.922 318.416 328.528 318.416 329.361V330.801Z" fill="#F4EFF0"/>
<path d="M307.731 334.741H324.175C325.236 334.741 326.145 333.832 326.145 332.771H305.685C305.685 333.832 306.595 334.741 307.731 334.741Z" fill="#E2E2E2"/>
<path d="M315.082 396.272H255.142L254.687 364.446H328.949C333.95 364.446 337.966 368.462 337.966 373.464C337.891 386.118 327.661 396.272 315.082 396.272Z" fill="#352934"/>
<path d="M266.887 511.681L303.639 387.406C304.852 383.239 308.716 380.359 313.112 380.359C314.021 380.359 315.006 380.511 315.915 380.738C321.144 382.254 324.099 387.785 322.584 393.014L285.832 517.289L266.887 511.681Z" fill="#EF9067"/>
<path d="M297.426 501.527L266.887 492.509L305.382 362.4C307.883 353.989 316.749 349.139 325.16 351.639C333.571 354.14 338.421 363.006 335.92 371.417L297.426 501.527Z" fill="#352934"/>
<path d="M449.132 297.914H321.826C319.325 297.914 317.279 295.868 317.279 293.367L333.041 202.434C333.041 199.934 335.087 197.888 337.588 197.888H464.893C467.394 197.888 469.44 199.934 469.44 202.434L453.678 293.367C453.678 295.868 451.708 297.914 449.132 297.914Z" fill="#CECECE"/>
<path d="M456.709 297.914H329.404C326.903 297.914 324.857 295.868 324.857 293.367L340.619 202.434C340.619 199.934 342.665 197.888 345.165 197.888H472.471C474.972 197.888 477.018 199.934 477.018 202.434L461.256 293.367C461.256 295.868 459.286 297.914 456.709 297.914Z" fill="#F4EFF0"/>
<path d="M417.836 329.816L407.378 276.848H388.737C386.464 276.848 384.721 278.969 385.176 281.167L394.42 327.922C394.799 329.664 393.435 331.256 391.693 331.256H380.326C378.28 331.256 376.689 332.923 376.689 334.893H395.784H413.516C416.32 334.969 418.366 332.468 417.836 329.816Z" fill="#CECECE"/>
<path d="M418.821 334.969H399.498L388.283 278.136C388.131 277.454 388.661 276.923 389.343 276.923H411.092L421.852 331.407C422.155 333.226 420.715 334.969 418.821 334.969Z" fill="#F4EFF0"/>
<path d="M395.86 334.969H399.498L398.512 329.816H394.799L395.86 334.969Z" fill="#F4EFF0"/>
<path d="M395.86 334.969C397.755 334.969 399.194 333.226 398.816 331.331L398.513 329.816H394.421L395.86 334.969Z" fill="#CECECE"/>
<path d="M412.531 249.719C408.439 249.719 405.105 246.385 405.105 242.293C405.105 240.929 405.484 239.717 406.09 238.656C405.029 238.353 403.893 238.125 402.68 238.125C396.239 238.125 391.086 243.354 391.086 249.719C391.086 256.084 396.315 261.313 402.68 261.313C409.121 261.313 414.274 256.084 414.274 249.719C414.274 249.643 414.274 249.568 414.274 249.492C413.668 249.643 413.138 249.719 412.531 249.719Z" fill="#F0D09A"/>
<path d="M324.402 378.919L261.962 395.363C244.988 399.834 227.786 387.785 219.527 367.856L316.294 348.078C324.781 345.88 333.496 350.958 335.693 359.445C337.966 368.007 332.889 376.722 324.402 378.919Z" fill="#3B323A"/>
<path d="M387.222 473.641L358.123 486.599L307.125 371.872C303.564 363.84 307.201 354.443 315.233 350.882C323.266 347.32 332.662 350.958 336.224 358.99L387.222 473.641Z" fill="#3B323A"/>
<path d="M170.878 355.959H495.356C499.296 355.959 502.555 352.701 502.555 348.76V341.94C502.555 338 499.296 334.741 495.356 334.741H170.878C166.937 334.741 163.679 338 163.679 341.94V348.76C163.679 352.701 166.861 355.959 170.878 355.959Z" fill="#F2F2F2"/>
<path d="M434.658 510.545L370.172 522.29C367.671 522.745 365.322 521.153 364.792 518.804L364.337 516.758C363.049 510.848 366.838 504.861 373.051 503.27L420.033 491.373C429.126 489.1 438.296 493.267 439.963 500.921L440.569 503.649C441.251 506.756 438.599 509.863 434.658 510.545Z" fill="#535452"/>
<path d="M437.159 504.71L365.095 517.819C364.943 517.819 364.792 517.895 364.64 517.895L364.867 518.804C365.398 521.229 367.747 522.745 370.248 522.29L434.734 510.544C438.674 509.862 441.402 506.756 440.72 503.649L440.645 503.421C439.584 504.028 438.447 504.482 437.159 504.71Z" fill="#FFFDFD"/>
<path d="M301.518 551.085L247.64 513.803C245.594 512.363 244.988 509.559 246.352 507.513L247.488 505.695C250.747 500.618 257.718 499.026 263.174 502.361L304.776 527.216C312.884 532.065 316.37 541.537 312.126 548.054L310.611 550.403C308.944 553.056 304.776 553.359 301.518 551.085Z" fill="#424441"/>
<path d="M307.428 548.736L247.185 507.059C247.034 506.983 246.958 506.831 246.806 506.756L246.352 507.513C245.064 509.559 245.594 512.363 247.64 513.803L301.518 551.085C304.776 553.359 308.944 553.056 310.611 550.403L310.762 550.176C309.626 549.949 308.489 549.418 307.428 548.736Z" fill="#CECECE"/>
<path d="M152.312 334.741H140.036C133.823 334.741 128.746 329.664 128.746 323.45V290.033H163.603V323.45C163.679 329.664 158.602 334.741 152.312 334.741Z" fill="#FF6161"/>
<path d="M132.686 294.579C124.578 294.579 118.061 301.172 118.061 309.204C118.061 317.237 124.654 323.829 132.686 323.829C140.718 323.829 147.311 317.237 147.311 309.204C147.311 301.172 140.718 294.579 132.686 294.579ZM132.686 320.647C126.396 320.647 121.244 315.494 121.244 309.204C121.244 302.915 126.396 297.762 132.686 297.762C138.975 297.762 144.128 302.915 144.128 309.204C144.053 315.57 138.975 320.647 132.686 320.647Z" fill="#F4A36C"/>
<path d="M152.312 334.741H140.036C133.823 334.741 128.746 329.664 128.746 323.45V290.033H163.603V323.45C163.679 329.664 158.602 334.741 152.312 334.741Z" fill="#F7BC8B"/>
<path d="M145.265 324.132C141.779 324.132 138.975 321.329 138.975 317.843V290.033H128.746V323.45C128.746 329.664 133.823 334.741 140.036 334.741H152.312C158.299 334.741 163.224 330.043 163.603 324.132H145.265Z" fill="#EFA573"/>
<path d="M289.772 334.741C290.53 332.771 290.909 330.649 290.909 328.452C290.909 318.374 282.801 310.265 272.722 310.265C262.644 310.265 254.536 318.374 254.536 328.452C254.536 330.649 254.915 332.771 255.672 334.741H289.772Z" fill="#FC9F6F"/>
<path opacity="0.77" d="M142.385 283.97C145.106 283.97 147.311 281.765 147.311 279.045C147.311 276.325 145.106 274.119 142.385 274.119C139.665 274.119 137.46 276.325 137.46 279.045C137.46 281.765 139.665 283.97 142.385 283.97Z" fill="#F2F2F2"/>
<path opacity="0.77" d="M151.479 269.194C155.538 269.194 158.829 265.903 158.829 261.844C158.829 257.784 155.538 254.493 151.479 254.493C147.419 254.493 144.128 257.784 144.128 261.844C144.128 265.903 147.419 269.194 151.479 269.194Z" fill="#F2F2F2"/>
<path d="M79.5661 221.758C91.1168 221.758 100.481 212.394 100.481 200.843C100.481 189.292 91.1168 179.928 79.5661 179.928C68.0154 179.928 58.6516 189.292 58.6516 200.843C58.6516 212.394 68.0154 221.758 79.5661 221.758Z" fill="#F0D09A"/>
</g>
<defs>
<clipPath id="clip0_4_510">
<rect width="597" height="597" fill="white"/>
</clipPath>
</defs>
</svg>
