<svg width="34" height="31" viewBox="0 0 34 31" fill="none" xmlns="http://www.w3.org/2000/svg">
<path opacity="0.8" d="M30.5132 10.9277L21.634 16.679C21.3741 16.848 21.0578 16.9068 20.7545 16.8425C20.4513 16.7782 20.186 16.5961 20.017 16.3362C19.848 16.0763 19.7893 15.7599 19.8536 15.4566C19.9179 15.1534 20.1 14.8881 20.3599 14.7192L29.2391 8.96782C29.499 8.79885 29.8153 8.74006 30.1186 8.80436C30.4218 8.86866 30.6871 9.05079 30.8561 9.31068C31.025 9.57058 31.0838 9.88695 31.0195 10.1902C30.9552 10.4934 30.7731 10.7587 30.5132 10.9277Z" fill="#389BF3"/>
<path opacity="0.8" d="M18.6477 18.6433L12.7106 22.5011C12.4501 22.6701 12.1332 22.7287 11.8295 22.664C11.5259 22.5992 11.2603 22.4165 11.0914 22.1561C10.9224 21.8956 10.8638 21.5787 10.9286 21.275C10.9933 20.9713 11.176 20.7058 11.4365 20.5368L17.3692 16.6834C17.4979 16.5998 17.6418 16.5423 17.7927 16.5142C17.9436 16.4862 18.0985 16.4882 18.2487 16.52C18.3988 16.5518 18.5413 16.6129 18.6678 16.6998C18.7943 16.7867 18.9025 16.8976 18.9862 17.0263C19.0699 17.155 19.1273 17.2989 19.1554 17.4498C19.1834 17.6007 19.1815 17.7557 19.1497 17.9058C19.1178 18.056 19.0567 18.1984 18.9698 18.3249C18.883 18.4515 18.772 18.5597 18.6433 18.6433H18.6477Z" fill="#FF9D23"/>
<path d="M26.3457 9.57391L17.4665 15.3253C17.3378 15.4089 17.1939 15.4664 17.043 15.4945C16.8921 15.5225 16.7372 15.5205 16.587 15.4887C16.4369 15.4569 16.2944 15.3958 16.1679 15.3089C16.0414 15.222 15.9332 15.1111 15.8495 14.9824C15.7658 14.8537 15.7084 14.7098 15.6803 14.5589C15.6523 14.408 15.6542 14.253 15.6861 14.1029C15.7179 13.9527 15.779 13.8103 15.8659 13.6838C15.9527 13.5572 16.0637 13.449 16.1924 13.3654L25.0716 7.61404C25.3317 7.46463 25.6392 7.42061 25.9307 7.49104C26.2223 7.56147 26.4758 7.74099 26.6391 7.99265C26.8023 8.24432 26.8629 8.54898 26.8083 8.84395C26.7537 9.13891 26.5882 9.40174 26.3457 9.57834V9.57391Z" fill="#AA7DFF"/>
<path d="M14.4803 17.2851L8.54311 21.1474C8.41435 21.2412 8.26783 21.3077 8.11249 21.343C7.95715 21.3783 7.79625 21.3815 7.63961 21.3525C7.48297 21.3235 7.33389 21.2629 7.20145 21.1744C7.06901 21.0859 6.956 20.9713 6.86931 20.8377C6.78263 20.7041 6.72408 20.5542 6.69726 20.3971C6.67043 20.2401 6.67588 20.0793 6.71328 19.9244C6.75068 19.7696 6.81925 19.624 6.91479 19.4965C7.01033 19.3691 7.13084 19.2624 7.26897 19.1831L13.2061 15.3253C13.466 15.1563 13.7824 15.0975 14.0856 15.1618C14.3889 15.2261 14.6542 15.4082 14.8231 15.6681C14.9921 15.928 15.0509 16.2444 14.9866 16.5476C14.9223 16.8509 14.7402 17.1162 14.4803 17.2851Z" fill="#389BF3"/>
<path d="M29.0223 7.83083L28.9692 7.86623C28.8405 7.94989 28.6966 8.00738 28.5457 8.03543C28.3948 8.06347 28.2398 8.06152 28.0897 8.02968C27.9395 7.99785 27.7971 7.93674 27.6706 7.84987C27.544 7.76299 27.4358 7.65204 27.3522 7.52336C27.2685 7.39467 27.211 7.25076 27.183 7.09986C27.1549 6.94895 27.1569 6.79399 27.1887 6.64384C27.2206 6.49369 27.2817 6.35128 27.3685 6.22474C27.4554 6.0982 27.5664 5.99001 27.6951 5.90635L27.7481 5.87095C28.008 5.70199 28.3244 5.64319 28.6277 5.70749C28.9309 5.77179 29.1962 5.95393 29.3652 6.21382C29.5341 6.47372 29.5929 6.79009 29.5286 7.09334C29.4643 7.39659 29.2822 7.66187 29.0223 7.83083Z" fill="#FF9D23"/>
<path opacity="0.5" d="M30.0619 15.2898L21.1827 21.0412C20.9229 21.2101 20.6065 21.2689 20.3032 21.2046C20 21.1403 19.7347 20.9582 19.5657 20.6983C19.3968 20.4384 19.338 20.122 19.4023 19.8188C19.4666 19.5155 19.6487 19.2503 19.9086 19.0813L28.7878 13.33C28.9165 13.2463 29.0604 13.1888 29.2113 13.1608C29.3622 13.1327 29.5171 13.1347 29.6673 13.1665C29.8175 13.1983 29.9599 13.2594 30.0864 13.3463C30.2129 13.4332 30.3211 13.5441 30.4048 13.6728C30.4885 13.8015 30.546 13.9454 30.574 14.0963C30.602 14.2472 30.6001 14.4022 30.5683 14.5523C30.5364 14.7025 30.4753 14.8449 30.3884 14.9715C30.3016 15.098 30.1906 15.2062 30.0619 15.2898Z" fill="#389BF3"/>
<path opacity="0.5" d="M18.1965 23.0055L12.2593 26.8633C12.1307 26.947 11.9867 27.0045 11.8358 27.0325C11.6849 27.0606 11.53 27.0586 11.3798 27.0268C11.0766 26.9625 10.8113 26.7803 10.6423 26.5204C10.4734 26.2606 10.4146 25.9442 10.4789 25.6409C10.5432 25.3377 10.7253 25.0724 10.9852 24.9034L16.9268 21.0456C17.0555 20.962 17.1994 20.9045 17.3503 20.8764C17.5012 20.8484 17.6561 20.8503 17.8063 20.8822C17.9564 20.914 18.0989 20.9751 18.2254 21.062C18.3519 21.1488 18.4601 21.2598 18.5438 21.3885C18.6274 21.5172 18.6849 21.6611 18.713 21.812C18.741 21.9629 18.7391 22.1178 18.7072 22.268C18.6754 22.4182 18.6143 22.5606 18.5274 22.6871C18.4406 22.8136 18.3296 22.9218 18.2009 23.0055H18.1965Z" fill="#AA7DFF"/>
<path opacity="0.5" d="M32.7385 13.5512L32.6855 13.5866C32.5568 13.6702 32.4129 13.7277 32.262 13.7558C32.111 13.7838 31.9561 13.7819 31.8059 13.75C31.5027 13.6857 31.2374 13.5036 31.0684 13.2437C30.8995 12.9838 30.8407 12.6675 30.905 12.3642C30.9693 12.061 31.1514 11.7957 31.4113 11.6267L31.4644 11.5913C31.5931 11.5077 31.737 11.4502 31.8879 11.4221C32.0388 11.3941 32.1938 11.396 32.3439 11.4279C32.4941 11.4597 32.6365 11.5208 32.763 11.6077C32.8896 11.6945 32.9978 11.8055 33.0814 11.9342C33.1651 12.0629 33.2226 12.2068 33.2506 12.3577C33.2787 12.5086 33.2767 12.6635 33.2449 12.8137C33.213 12.9639 33.1519 13.1063 33.0651 13.2328C32.9782 13.3593 32.8672 13.4675 32.7385 13.5512Z" fill="#FF9D23"/>
<path d="M1.21677 1H21.7623V29.9292H1.21677V1Z" fill="white"/>
<path d="M19.2229 27.7216V21.8552" stroke="#732E54" stroke-miterlimit="10"/>
<path opacity="0.5" d="M19.2229 21.0146V19.1034" stroke="#732E54" stroke-miterlimit="10"/>
<path opacity="0.2" d="M19.2229 18.2806V16.8118" stroke="#732E54" stroke-miterlimit="10"/>
<path d="M20.2183 1.07077H2.32723C1.59422 1.07077 1 1.66499 1 2.398V28.6728C1 29.4058 1.59422 30 2.32723 30H20.2183C20.9513 30 21.5455 29.4058 21.5455 28.6728V2.398C21.5455 1.66499 20.9513 1.07077 20.2183 1.07077Z" stroke="#732E54" stroke-miterlimit="10"/>
<path d="M6.68497 5.53029H16.5596" stroke="#732E54" stroke-miterlimit="10" stroke-linecap="round"/>
<path d="M6.68497 7.99892H9.92341" stroke="#732E54" stroke-miterlimit="10" stroke-linecap="round"/>
<path d="M6.68497 12.9407H9.92341" stroke="#732E54" stroke-miterlimit="10" stroke-linecap="round"/>
<path d="M6.68497 10.4676H15.6747" stroke="#732E54" stroke-miterlimit="10" stroke-linecap="round"/>
<path d="M6.56552 26.6509H15.8694" stroke="#732E54" stroke-miterlimit="10" stroke-linecap="round"/>
<path d="M23.3063 4.43309C23.4672 4.52793 23.6076 4.65364 23.7197 4.80299C23.8317 4.95233 23.9131 5.12236 23.9591 5.30329C24.0052 5.48422 24.015 5.67247 23.988 5.8572C23.961 6.04194 23.8977 6.21951 23.8018 6.37969L13.445 23.7443L10.7684 25.7529L11.0029 22.3065L21.3509 4.92416C21.4465 4.76297 21.5731 4.6223 21.7234 4.51027C21.8736 4.39824 22.0446 4.31706 22.2264 4.27141C22.4081 4.22576 22.5972 4.21654 22.7825 4.24429C22.9679 4.27204 23.1459 4.3362 23.3063 4.43309Z" fill="url(#paint0_linear_4_263)"/>
<path d="M13.5954 23.2621L10.9454 25.2485L11.1799 21.7844L13.5954 23.2621Z" fill="white"/>
<path d="M23.2532 4.3977C23.5767 4.59166 23.81 4.90597 23.9021 5.27171C23.9941 5.63744 23.9374 6.02476 23.7443 6.34873L13.6175 23.3284L10.6667 25.6909L11.1754 21.8641L21.3022 4.88878C21.4962 4.56533 21.8105 4.332 22.1762 4.23995C22.5419 4.14789 22.9293 4.20462 23.2532 4.3977Z" stroke="#732E54" stroke-miterlimit="10"/>
<defs>
<linearGradient id="paint0_linear_4_263" x1="18.1965" y1="15.7804" x2="15.7532" y2="14.3234" gradientUnits="userSpaceOnUse">
<stop offset="0.04" stop-color="#F27B40"/>
<stop offset="1" stop-color="#EC697D"/>
</linearGradient>
</defs>
</svg>
