<svg width="53" height="50" viewBox="0 0 53 50" fill="none" xmlns="http://www.w3.org/2000/svg">
<path d="M24.4487 0.577753C24.5162 1.60479 24.5012 2.63932 24.4037 3.65886C24.3887 3.78631 24.3812 3.91375 24.3587 4.0337C24.3512 4.09367 24.3438 4.15364 24.3363 4.21362C24.3288 4.30358 24.3588 4.07118 24.3363 4.20612C24.3288 4.24361 24.3288 4.28858 24.3213 4.32607C24.2838 4.58095 24.2388 4.83583 24.1938 5.09072C24.0964 5.60049 23.9689 6.11027 23.819 6.60504C23.744 6.83744 23.6691 7.06983 23.5866 7.30222C23.5416 7.41467 23.5041 7.52712 23.4516 7.63957C23.4441 7.66206 23.4142 7.69955 23.4142 7.72954C23.4142 7.65457 23.4592 7.63208 23.4292 7.68456C23.3992 7.74453 23.3767 7.8045 23.3467 7.86447C23.1668 8.26179 22.9494 8.64412 22.7095 9.00396C22.657 9.08643 22.597 9.16888 22.5371 9.25135C22.5071 9.29633 22.4696 9.34131 22.4396 9.38629C22.4246 9.40128 22.4096 9.42377 22.4021 9.43876C22.4771 9.30382 22.4321 9.40128 22.4096 9.43127C22.2747 9.60369 22.1248 9.77612 21.9748 9.94104C21.8249 10.0985 21.6749 10.2484 21.51 10.3983C21.4351 10.4658 21.3526 10.5333 21.2702 10.6007C21.2327 10.6307 21.1952 10.6607 21.1577 10.6907C21.0977 10.7357 21.2701 10.6007 21.1802 10.6757C21.1502 10.6982 21.1277 10.7132 21.0977 10.7357C20.9028 10.8781 20.7004 11.0131 20.4905 11.133C20.2806 11.253 20.0632 11.3429 19.8458 11.4554C19.8533 11.4479 19.9732 11.4029 19.8907 11.4329C19.8608 11.4479 19.8308 11.4554 19.8008 11.4704C19.7408 11.4928 19.6809 11.5153 19.6134 11.5378C19.5009 11.5753 19.3885 11.6128 19.2685 11.6428C19.0361 11.7102 18.7963 11.7552 18.5564 11.7852C18.4289 11.8002 18.279 11.9351 18.219 12.0401C18.159 12.1525 18.1366 12.2725 18.1515 12.3999C18.189 12.6698 18.4214 12.8872 18.7063 12.8872C19.2535 12.8797 19.8008 12.8797 20.348 12.9172C20.4755 12.9247 20.5954 12.9397 20.7229 12.9547C20.7304 12.9547 20.8653 12.9772 20.7754 12.9622C20.6779 12.9472 20.8128 12.9697 20.8278 12.9697C20.8953 12.9772 20.9628 12.9922 21.0302 13.0072C21.3001 13.0596 21.5625 13.1271 21.8174 13.2096C21.8624 13.2246 21.9148 13.247 21.9598 13.262C21.9823 13.2695 22.0123 13.2845 22.0348 13.292C22.0798 13.307 22.1248 13.352 22.0048 13.277C22.0948 13.337 22.2072 13.367 22.3047 13.4195C22.4921 13.5169 22.672 13.6219 22.8369 13.7418C22.8819 13.7718 22.9269 13.8018 22.9719 13.8393C22.9869 13.8543 23.0094 13.8693 23.0244 13.8768C23.0993 13.9292 22.9944 13.8543 22.9869 13.8468C23.0618 13.9217 23.1593 13.9892 23.2418 14.0567C23.4067 14.2066 23.5641 14.3566 23.714 14.5215C23.7815 14.5964 23.849 14.6714 23.9089 14.7464C23.9389 14.7839 23.9689 14.8213 24.0064 14.8663C24.0514 14.9263 23.9239 14.7539 23.9914 14.8438C24.0139 14.8738 24.0289 14.8963 24.0514 14.9263C24.1788 15.0987 24.2913 15.2786 24.4037 15.4586C24.5162 15.646 24.6211 15.8409 24.7186 16.0358C24.7636 16.1332 24.8085 16.2307 24.8535 16.3282C24.861 16.3507 24.8685 16.3731 24.8835 16.3881C24.8235 16.2457 24.861 16.3282 24.876 16.3656C24.8985 16.4256 24.921 16.4781 24.9435 16.5381C25.1159 16.9879 25.2433 17.4452 25.3408 17.9099C25.3708 18.0449 25.3933 18.1723 25.4158 18.3073C25.4233 18.3598 25.4308 18.4197 25.4458 18.4722C25.4532 18.5172 25.4608 18.5547 25.4608 18.5996C25.4608 18.5772 25.4533 18.5547 25.4533 18.5322C25.4533 18.5622 25.4608 18.5846 25.4608 18.6146C25.4907 18.8845 25.5207 19.1469 25.5357 19.4168C25.6182 20.6537 25.5432 21.8982 25.4608 23.1276C25.4458 23.405 25.6857 23.6449 25.948 23.6824C26.2254 23.7198 26.4803 23.5474 26.5627 23.2775C27.155 21.3959 27.23 19.4093 27.6723 17.4976C27.7697 17.0703 27.8822 16.643 28.0321 16.2232C28.0621 16.1332 28.0996 16.0433 28.1296 15.9608C28.1446 15.9158 28.1745 15.8709 28.1895 15.8184C28.1895 15.8259 28.137 15.9458 28.1745 15.8634C28.182 15.8409 28.197 15.8109 28.2045 15.7884C28.287 15.6085 28.3694 15.4361 28.4594 15.2636C28.6393 14.9188 28.8492 14.589 29.0816 14.2816C29.0966 14.2666 29.1116 14.2441 29.1191 14.2291C29.0441 14.3416 29.0666 14.2966 29.0891 14.2666C29.1191 14.2291 29.1491 14.1916 29.1791 14.1541C29.2391 14.0792 29.3065 14.0042 29.374 13.9292C29.5014 13.7868 29.6364 13.6519 29.7713 13.5319C29.8538 13.457 29.9287 13.3895 30.0187 13.322C30.0337 13.307 30.0487 13.2995 30.0712 13.2845C29.9362 13.3895 30.0337 13.3145 30.0562 13.292C30.1012 13.262 30.1387 13.2321 30.1836 13.2021C30.3486 13.0896 30.521 12.9847 30.7009 12.8947C30.7459 12.8722 30.7983 12.8497 30.8433 12.8272C30.8658 12.8197 30.8808 12.8122 30.9033 12.8047C31.0083 12.7598 30.7909 12.8497 30.8883 12.8122C30.9858 12.7748 31.0832 12.7373 31.1882 12.7073C31.2931 12.6773 31.3906 12.6473 31.4955 12.6248C31.5405 12.6173 31.593 12.6023 31.638 12.5948C31.683 12.5874 31.8928 12.5574 31.6979 12.5799C31.8479 12.5574 31.9903 12.5349 32.0953 12.4149C32.1777 12.325 32.2302 12.22 32.2527 12.0926C32.2902 11.8377 32.1252 11.5303 31.8479 11.4778C31.6305 11.4329 31.4131 11.3804 31.1957 11.3129C31.0982 11.2829 31.0082 11.2455 30.9108 11.2155C30.8583 11.193 30.8059 11.1705 30.7534 11.1555C30.9258 11.223 30.7309 11.1405 30.6859 11.1255C30.2886 10.9381 29.9063 10.7132 29.5539 10.4508C29.5389 10.4358 29.5164 10.4208 29.5014 10.4133C29.4265 10.3533 29.5314 10.4358 29.5389 10.4433C29.5014 10.4058 29.449 10.3758 29.404 10.3384C29.314 10.2634 29.2315 10.1959 29.1491 10.121C28.9842 9.97103 28.8192 9.8136 28.6693 9.64118C28.5194 9.47625 28.3769 9.31132 28.2345 9.1389C28.2195 9.11641 28.2045 9.09392 28.182 9.07143C28.1895 9.07893 28.2645 9.17638 28.2045 9.10141C28.167 9.05643 28.137 9.01146 28.0995 8.96648C28.0321 8.87652 27.9646 8.77906 27.9047 8.6891C27.6573 8.32176 27.4399 7.93195 27.2449 7.53463C27.2 7.43717 27.155 7.34721 27.11 7.24975C27.095 7.22726 27.0875 7.19727 27.08 7.17478C27.0426 7.09232 27.095 7.20477 27.095 7.21227C27.0725 7.1448 27.0425 7.08483 27.02 7.02485C26.9376 6.82244 26.8626 6.61253 26.7876 6.40263C26.4728 5.48054 26.2404 4.52848 26.053 3.56891C25.948 3.03665 25.8506 2.49689 25.7681 1.95713C25.7306 1.70225 25.6932 1.45486 25.6557 1.19998C25.6407 1.07253 25.6182 0.952588 25.6032 0.825146C25.5957 0.780166 25.5657 0.570259 25.5957 0.757674C25.5882 0.690205 25.5807 0.630234 25.5732 0.562764C25.5507 0.405335 25.5207 0.277888 25.4083 0.165439C25.3108 0.0679829 25.1534 -0.00697969 25.011 0.000516933C24.8685 0.00801356 24.7111 0.0529897 24.6136 0.165439C24.5162 0.285385 24.4262 0.435318 24.4487 0.577753C24.7111 2.54937 25.011 4.54347 25.6182 6.44011C26.2029 8.2468 27.155 9.97103 28.6468 11.178C29.4939 11.8602 30.4685 12.3849 31.5405 12.5873C31.593 12.22 31.638 11.8527 31.6905 11.4853C31.2257 11.5453 30.7983 11.6653 30.3635 11.8527C29.9812 12.0176 29.6289 12.2425 29.299 12.5049C28.6543 13.0072 28.1221 13.6594 27.7022 14.3566C27.2599 15.0837 26.9376 15.8859 26.7202 16.7105C26.4578 17.6851 26.3079 18.6896 26.1579 19.6867C25.993 20.8111 25.8206 21.9356 25.4757 23.0227C25.8431 23.0751 26.2104 23.1201 26.5777 23.1726C26.7202 20.9536 26.8476 18.6296 26.098 16.4931C25.4758 14.7089 24.2538 13.0371 22.4771 12.2875C21.2851 11.7852 19.9807 11.7702 18.7063 11.7852C18.7588 12.1525 18.8037 12.5199 18.8562 12.8872C20.7454 12.6248 22.3571 11.4029 23.4591 9.90356C24.6811 8.23931 25.2134 6.14775 25.4683 4.12366C25.6182 2.94669 25.6482 1.76222 25.5657 0.585248C25.5432 0.29288 25.3183 0.00800807 25.0035 0.0230013C24.7186 0.0304979 24.4262 0.262895 24.4487 0.577753Z" fill="#231F20"/>
<path d="M3.63048 15.8184C3.75792 16.3806 3.87037 16.9504 3.96783 17.5201C4.0203 17.7975 4.06531 18.0749 4.10279 18.3522C4.12528 18.4947 4.14775 18.6296 4.16275 18.7721C4.17024 18.832 4.17773 18.8995 4.18522 18.9595C4.20022 19.0644 4.18522 18.967 4.18522 18.952C4.19272 18.997 4.20023 19.0419 4.20023 19.0944C4.35016 20.2264 4.44011 21.3584 4.48509 22.4979C4.50758 22.9852 4.50761 23.465 4.47762 23.9522C4.47012 24.0647 4.4626 24.1771 4.4476 24.2896C4.44011 24.3496 4.43263 24.4095 4.42513 24.4695C4.41763 24.5295 4.44012 24.5745 4.42513 24.4545C4.43263 24.492 4.41012 24.537 4.41012 24.5744C4.37264 24.8068 4.32766 25.0317 4.26019 25.2566C4.2302 25.3691 4.19273 25.474 4.15524 25.5865C4.14025 25.6315 4.11029 25.684 4.10279 25.7289C4.13278 25.6165 4.13275 25.669 4.11776 25.6989C4.10277 25.7364 4.08777 25.7664 4.07277 25.8039C3.96782 26.0213 3.84788 26.2237 3.70545 26.4186C3.66796 26.4636 3.63798 26.5161 3.6005 26.5611C3.608 26.5461 3.67548 26.4636 3.61551 26.5386C3.60052 26.5611 3.58551 26.5835 3.56302 26.5985C3.48805 26.696 3.40557 26.7935 3.32311 26.8909C3.16568 27.0708 2.99328 27.2507 2.82086 27.4232C2.63344 27.6106 2.43851 27.783 2.2361 27.9554C2.13115 28.0454 2.02621 28.1353 1.91376 28.2178C1.89127 28.2403 1.86128 28.2628 1.83879 28.2778C1.8238 28.2853 1.73384 28.3602 1.80131 28.3078C1.87628 28.2553 1.77132 28.3303 1.76383 28.3378C1.73384 28.3603 1.69637 28.3827 1.66639 28.4127C1.21659 28.7426 0.751797 29.0499 0.279509 29.3423C0.0771005 29.4697 -0.0578681 29.7396 0.0245948 29.9795C0.0995611 30.2044 0.316978 30.4068 0.564367 30.3918C1.03665 30.3618 1.50894 30.3394 1.98873 30.3618C2.30358 30.3768 2.61844 30.4068 2.9258 30.4443C3.09823 30.4593 3.26314 30.4743 3.43556 30.4893C3.48804 30.4893 3.54052 30.4968 3.593 30.5043C3.60799 30.5043 3.61549 30.5043 3.63048 30.5118C3.69045 30.5193 3.67545 30.5193 3.58549 30.5043C3.60049 30.5118 3.638 30.5118 3.65299 30.5118C3.77294 30.5343 3.89287 30.5568 4.01281 30.5942C4.11777 30.6242 4.22273 30.6617 4.32018 30.6992C4.35017 30.7067 4.37267 30.7217 4.40265 30.7292C4.47762 30.7592 4.26769 30.6692 4.38014 30.7217C4.44012 30.7517 4.49261 30.7742 4.55259 30.8041C4.76249 30.9091 4.9574 31.029 5.14481 31.164C5.1673 31.179 5.18979 31.2015 5.21228 31.2165C5.29474 31.2764 5.18979 31.2015 5.1823 31.194C5.20479 31.2315 5.28723 31.2764 5.31722 31.3064C5.41468 31.3889 5.50465 31.4713 5.59461 31.5538C5.76703 31.7187 5.93946 31.8987 6.0894 32.0786C6.16436 32.1685 6.23932 32.2585 6.30679 32.3485C6.23182 32.2435 6.38925 32.4534 6.30679 32.3485C6.32178 32.3709 6.33678 32.3859 6.35178 32.4084C6.39676 32.4684 6.44171 32.5284 6.4792 32.5883C6.62163 32.7908 6.75657 32.9932 6.88401 33.2031C7.16138 33.6604 7.41628 34.1401 7.64868 34.6199C7.77612 34.8823 7.90356 35.1522 8.02351 35.4146C8.0535 35.4745 8.07599 35.5345 8.10598 35.5945C8.12097 35.6245 8.13597 35.662 8.15097 35.692C8.18845 35.7894 8.15096 35.6994 8.14346 35.677C8.21093 35.8269 8.2634 35.9768 8.32338 36.1267C8.81066 37.3562 9.18549 38.6231 9.44787 39.92C9.50035 40.1974 9.80772 40.3548 10.0626 40.3249C10.3625 40.2874 10.5199 40.055 10.5499 39.7701C10.8123 37.5136 10.2425 35.2721 10.3774 33.0082C10.3849 32.8282 10.4074 32.6483 10.4224 32.4759C10.4299 32.4309 10.4374 32.3859 10.4374 32.341C10.4449 32.266 10.4149 32.4984 10.4299 32.3859C10.4299 32.3634 10.4374 32.3485 10.4374 32.326C10.4524 32.2285 10.4674 32.131 10.4824 32.0336C10.5499 31.6513 10.6398 31.2689 10.7448 30.9016C10.8047 30.7067 10.8647 30.5118 10.9322 30.3169C10.9622 30.2269 10.9922 30.1444 11.0297 30.062C11.0447 30.017 11.0671 29.972 11.0821 29.927C11.1196 29.8446 11.0671 29.9645 11.0596 29.972C11.0746 29.942 11.0821 29.9121 11.0971 29.8821C11.2546 29.5297 11.4345 29.1849 11.6519 28.8625C11.7043 28.7801 11.7643 28.6976 11.8243 28.6151C11.8318 28.6001 11.8993 28.5177 11.8318 28.6001C11.7718 28.6826 11.8393 28.5926 11.8543 28.5776C11.8843 28.5402 11.9143 28.5027 11.9517 28.4652C12.0792 28.3153 12.2216 28.1728 12.3716 28.0454C12.409 28.0079 12.454 27.9779 12.4915 27.9479C12.544 27.903 12.3865 28.0229 12.4465 27.9854C12.469 27.9704 12.4915 27.9554 12.514 27.9329C12.5964 27.8805 12.6714 27.828 12.7614 27.7755C12.8439 27.7305 12.9263 27.6855 13.0088 27.6481C13.0238 27.6406 13.1137 27.6031 13.0163 27.6406C12.9263 27.6781 13.0013 27.6481 13.0238 27.6406C13.0763 27.6181 13.1287 27.6031 13.1812 27.5881C13.4061 27.5131 13.6085 27.2957 13.5935 27.0483C13.5785 26.7935 13.4286 26.591 13.1812 26.5086C12.2216 26.1862 11.2171 26.0513 10.25 25.7439C10.1376 25.7064 10.0251 25.669 9.91267 25.624C9.89018 25.6165 9.86767 25.609 9.84518 25.6015C9.83018 25.594 9.73273 25.5415 9.8152 25.5865C9.89766 25.6315 9.80021 25.579 9.78522 25.5715C9.75523 25.5565 9.71776 25.5415 9.68778 25.5265C9.47037 25.4291 9.26795 25.3091 9.07304 25.1742C9.04305 25.1517 9.01305 25.1292 8.98306 25.1142C8.91559 25.0692 8.99809 25.1367 9.01308 25.1367C8.99059 25.1442 8.8931 25.0392 8.87061 25.0168C8.77316 24.9268 8.67572 24.8368 8.58576 24.7394C8.51079 24.6569 8.43582 24.567 8.36086 24.477C8.32338 24.432 8.28589 24.387 8.24841 24.3421C8.34587 24.4545 8.28591 24.387 8.26342 24.357C8.24093 24.3271 8.21844 24.2896 8.18845 24.2596C7.91857 23.8923 7.69365 23.5024 7.49124 23.0976C7.43877 22.9927 7.39379 22.8952 7.34881 22.7903C7.32632 22.7453 7.30385 22.7003 7.28886 22.6478C7.27386 22.6253 7.26637 22.5953 7.25137 22.5729C7.20639 22.4679 7.29635 22.6778 7.25137 22.5803C7.16141 22.3629 7.07892 22.138 6.99646 21.9206C6.65911 20.9911 6.39673 20.0315 6.10437 19.0869C5.69955 17.8125 5.22727 16.5606 4.61255 15.3761C4.47761 15.1137 4.0878 15.0162 3.84041 15.1737C3.57053 15.3461 3.49555 15.661 3.63798 15.9458C3.78792 16.2307 3.93037 16.5231 4.06531 16.8154C4.12528 16.9504 4.19274 17.0853 4.24522 17.2203C4.23772 17.2053 4.20023 17.1078 4.23771 17.2053C4.25271 17.2353 4.26771 17.2727 4.2827 17.3027C4.31269 17.3777 4.34265 17.4527 4.37264 17.5201C4.58254 18.0449 4.76997 18.5772 4.94239 19.1169C5.25725 20.084 5.52714 21.066 5.85699 22.0256C6.17185 22.9402 6.55419 23.8473 7.10144 24.6494C7.39381 25.0767 7.72364 25.5115 8.12846 25.8414C8.56326 26.2087 9.04307 26.4711 9.57533 26.6735C10.6398 27.0858 11.7943 27.2058 12.8738 27.5656C12.8738 27.2058 12.8738 26.8459 12.8738 26.4786C11.2396 27.0034 10.3025 28.6301 9.78522 30.1594C9.51534 30.9466 9.35042 31.7712 9.26796 32.5958C9.163 33.6604 9.23796 34.7399 9.32792 35.8044C9.43287 37.1163 9.56032 38.4282 9.41039 39.7401C9.77772 39.6877 10.1451 39.6427 10.5124 39.5902C10.2725 38.4132 9.93514 37.2512 9.51533 36.1267C9.08802 34.9948 8.58575 33.8778 7.97852 32.8282C7.46126 31.9436 6.83905 31.0815 6.04441 30.4293C5.6096 30.077 5.15978 29.7921 4.63502 29.5897C4.17023 29.4023 3.68296 29.3498 3.18819 29.3048C2.82835 29.2748 2.47602 29.2299 2.11618 29.2074C1.58392 29.1774 1.05914 29.1999 0.526883 29.2299C0.62434 29.5822 0.714284 29.927 0.811741 30.2794C1.69634 29.7321 2.55846 29.1324 3.33061 28.4202C4.09527 27.708 4.80747 26.8909 5.1898 25.9089C5.55713 24.9643 5.6171 23.9072 5.59461 22.8952C5.57212 21.7482 5.48214 20.6012 5.3472 19.4692C5.18977 18.1348 4.96487 16.8005 4.6725 15.4885C4.60503 15.2037 4.26021 15.0088 3.98284 15.0987C3.72045 15.2262 3.55551 15.511 3.63048 15.8184Z" fill="#231F20"/>
<path d="M33.1223 30.9166C33.2272 31.3289 33.3097 31.7412 33.3697 32.1685C33.3622 32.1161 33.3546 32.0711 33.3472 32.0186C33.4596 32.8507 33.4746 33.7053 33.3622 34.5375C33.3697 34.485 33.3771 34.44 33.3846 34.3875C33.2947 35.0622 33.1223 35.7219 32.8599 36.3441C32.8824 36.2992 32.8974 36.2542 32.9199 36.2092C32.7924 36.5091 32.65 36.8014 32.4776 37.0788C32.3951 37.2213 32.2976 37.3637 32.2002 37.4986C32.1552 37.5586 32.1102 37.6186 32.0653 37.6786C32.1852 37.5211 32.0877 37.6486 32.0578 37.686C32.0278 37.7235 31.9978 37.761 31.9678 37.791C31.7579 38.0459 31.518 38.2783 31.2706 38.4957C31.2106 38.5482 31.1432 38.6006 31.0832 38.6531C31.0457 38.6831 30.9183 38.7806 31.0757 38.6606C31.0382 38.6831 31.0082 38.7131 30.9707 38.7431C30.8283 38.848 30.6784 38.9455 30.5284 39.0429C30.2436 39.2154 29.9587 39.3653 29.6513 39.4927C29.6963 39.4702 29.7413 39.4553 29.7863 39.4328C29.5689 39.5227 29.3515 39.6127 29.1341 39.7101C28.9841 39.7776 28.8417 39.8376 28.7293 39.95C28.4744 40.1899 28.5193 40.6022 28.7817 40.8046C28.9167 40.9096 29.0966 40.9396 29.254 40.9846C29.5239 41.067 29.7938 41.1645 30.0561 41.2769C30.0112 41.2544 29.9662 41.2394 29.9212 41.217C30.6334 41.5243 31.3231 41.9066 31.9378 42.3714C31.9528 42.3864 31.9678 42.3939 31.9828 42.4089C31.8553 42.3115 31.9078 42.3564 31.9378 42.3714C31.9753 42.4014 32.0053 42.4239 32.0427 42.4539C32.1102 42.5064 32.1777 42.5664 32.2377 42.6188C32.3501 42.7238 32.4626 42.8287 32.5675 42.9487C32.62 43.0012 32.665 43.0611 32.7174 43.1211C32.7399 43.1511 32.7624 43.1811 32.7849 43.2111C32.8074 43.241 32.8449 43.2935 32.74 43.1586C32.7549 43.1811 32.7699 43.1961 32.7849 43.2186C32.8749 43.3385 32.9649 43.4659 33.0398 43.6009C33.2347 43.9082 33.3921 44.2381 33.5421 44.5754C33.5196 44.5305 33.5046 44.4855 33.4821 44.4405C34.0219 45.7299 34.2692 47.1168 34.5091 48.4887C34.5691 48.856 34.6366 49.2234 34.704 49.5907C34.7265 49.7181 34.854 49.8681 34.9589 49.928C35.0714 49.988 35.1913 50.0105 35.3188 49.9955C35.5962 49.958 35.7986 49.7256 35.8061 49.4408C35.8286 48.8185 35.851 48.1963 35.8735 47.5666C35.896 46.9669 35.896 46.3596 35.9785 45.7599C35.971 45.8124 35.9635 45.8574 35.956 45.9098C36.031 45.3926 36.1434 44.8753 36.2783 44.373C36.3458 44.1256 36.4208 43.8783 36.4957 43.6309C36.5632 43.4285 36.6232 43.2186 36.7057 43.0161C36.6832 43.0611 36.6682 43.1061 36.6457 43.1511C36.7506 42.9112 36.8856 42.6863 37.043 42.4764C37.0655 42.4464 37.088 42.4164 37.1105 42.3789C37.1629 42.3115 37.013 42.4989 37.0955 42.3939C37.1479 42.3265 37.2004 42.2665 37.2529 42.199C37.3504 42.0791 37.4553 41.9666 37.5603 41.8542C37.7852 41.6218 38.0251 41.3969 38.2725 41.1795C38.3324 41.127 38.3924 41.082 38.4524 41.0295C38.4823 41.007 38.5123 40.9846 38.5423 40.9546C38.5573 40.9396 38.5723 40.9246 38.5948 40.9171C38.5723 40.9321 38.4824 41.0071 38.5498 40.9471C38.6698 40.8571 38.7972 40.7672 38.9172 40.6772C39.1646 40.5123 39.4194 40.3548 39.6968 40.2424C39.6518 40.2649 39.6069 40.2799 39.5619 40.3024C39.5844 40.2949 39.6069 40.2874 39.6293 40.2724C39.7643 40.2199 39.8917 40.1449 39.9667 40.0175C40.0267 39.905 40.0492 39.7851 40.0342 39.6577C39.9967 39.3803 39.7643 39.1704 39.4794 39.1704C39.352 39.1704 39.2245 39.1629 39.1046 39.1479C39.1571 39.1554 39.202 39.1629 39.2545 39.1704C39.0071 39.1329 38.7597 39.0654 38.5273 38.968C38.5723 38.9905 38.6173 39.0055 38.6623 39.0279C38.5199 38.968 38.3849 38.9005 38.2574 38.818C38.19 38.7806 38.13 38.7356 38.0626 38.6981C38.0326 38.6756 37.9951 38.6531 37.9651 38.6306C37.9501 38.6231 37.9351 38.6081 37.9201 38.6006C37.9126 38.5931 37.9051 38.5856 37.8976 38.5856C37.8451 38.5407 37.9726 38.6456 37.9651 38.6381C37.7102 38.4282 37.4703 38.2033 37.2454 37.9559C37.1929 37.8885 37.133 37.8285 37.0805 37.761C37.058 37.731 37.028 37.6935 37.0055 37.6636C36.9456 37.5886 37.0655 37.7385 37.043 37.7085C37.028 37.686 37.013 37.6711 36.998 37.6486C36.8856 37.5061 36.7881 37.3562 36.6832 37.2063C36.4732 36.8914 36.2859 36.5616 36.1134 36.2242C35.911 35.8344 35.7236 35.4296 35.5512 35.0247C35.5737 35.0697 35.5887 35.1147 35.6111 35.1597C35.1089 33.9677 34.719 32.7233 34.3967 31.4638C34.3217 31.1715 34.2543 30.8866 34.1868 30.5942C34.1193 30.3094 33.7745 30.1144 33.4971 30.2044C33.2122 30.3244 33.0473 30.6092 33.1223 30.9166C33.2797 31.5988 33.4521 32.281 33.6545 32.9557C33.8869 33.7428 34.1568 34.53 34.4642 35.2946C34.794 36.0968 35.1614 36.8914 35.6262 37.6261C36.0385 38.2858 36.5332 38.9305 37.1405 39.4178C37.4328 39.6502 37.7402 39.8676 38.085 40.0175C38.4674 40.1824 38.8422 40.2874 39.262 40.3249C39.3445 40.3324 39.4269 40.3324 39.5019 40.3324C39.4494 39.965 39.4044 39.5977 39.352 39.2303C38.7372 39.4702 38.205 39.8451 37.6952 40.2574C37.1854 40.6697 36.7057 41.1345 36.3009 41.6518C36.0984 41.9066 35.911 42.1615 35.7611 42.4539C35.5887 42.7987 35.4762 43.1736 35.3638 43.5409C35.0939 44.433 34.8765 45.3401 34.809 46.2697C34.7715 46.7944 34.764 47.3267 34.749 47.8515C34.734 48.3912 34.7115 48.9235 34.6965 49.4632C35.0639 49.4108 35.4312 49.3658 35.7986 49.3133C35.5287 47.8215 35.3263 46.3072 34.8465 44.8678C34.5991 44.1406 34.2917 43.4135 33.8419 42.7838C33.617 42.4614 33.3622 42.1615 33.0773 41.8917C32.7475 41.5918 32.3801 41.3219 32.0053 41.082C31.5929 40.8121 31.1582 40.5723 30.7084 40.3698C30.4535 40.2499 30.1911 40.1449 29.9212 40.0475C29.7038 39.9725 29.4864 39.9125 29.269 39.8451C29.314 39.8676 29.359 39.8826 29.404 39.905C29.4714 39.9725 29.5314 40.0325 29.5988 40.1C29.6213 40.1449 29.6363 40.1899 29.6588 40.2349C29.6663 40.2874 29.6738 40.3324 29.6813 40.3848C29.6738 40.4373 29.6663 40.4823 29.6588 40.5348C29.6363 40.5797 29.6213 40.6247 29.5988 40.6697C29.5539 40.7372 29.4939 40.8196 29.4264 40.8496C29.4414 40.8421 29.4489 40.8346 29.4639 40.8271C29.5014 40.8046 29.5389 40.7896 29.5764 40.7672C29.6813 40.7147 29.7938 40.6697 29.9062 40.6247C29.8612 40.6472 29.8163 40.6622 29.7713 40.6847C30.0786 40.5573 30.3935 40.4298 30.6934 40.2724C31.0382 40.0925 31.3606 39.8826 31.6679 39.6502C32.3201 39.1479 32.8824 38.5557 33.3247 37.866C34.1793 36.5541 34.5541 34.9648 34.5616 33.413C34.5616 32.4834 34.4342 31.5463 34.2093 30.6467C34.1343 30.3618 33.8045 30.1594 33.5196 30.2569C33.2197 30.3244 33.0398 30.6092 33.1223 30.9166Z" fill="#231F20"/>
<path d="M40.7165 11.028C40.7765 11.3054 40.8289 11.5828 40.8739 11.8602C40.8964 11.9951 40.9189 12.1375 40.9414 12.28C40.9489 12.325 40.9863 12.5349 40.9564 12.3699C40.9713 12.4524 40.9789 12.5349 40.9864 12.6098C41.0538 13.1796 41.1063 13.7568 41.1363 14.3341C41.1963 15.496 41.1887 16.6655 41.1063 17.82C41.0838 18.1049 41.0613 18.3897 41.0388 18.6821C41.0238 18.8095 41.0163 18.9445 41.0013 19.0719C40.9938 19.1319 40.9864 19.1919 40.9789 19.2593C40.9789 19.2893 40.9714 19.3193 40.9714 19.3418C40.9639 19.3868 40.9714 19.3643 40.9789 19.2743C40.9789 19.2968 40.9714 19.3193 40.9714 19.3418C40.9039 19.8216 40.7989 20.2939 40.6715 20.7587C40.604 20.9911 40.5291 21.2235 40.4466 21.4484C40.4016 21.5608 40.3641 21.6733 40.3191 21.7857C40.3116 21.8157 40.2967 21.8382 40.2892 21.8682C40.3341 21.7257 40.3117 21.8082 40.2967 21.8457C40.2667 21.9056 40.2442 21.9731 40.2142 22.0331C40.0118 22.4754 39.7794 22.8952 39.502 23.3C39.427 23.4125 39.3446 23.5249 39.2621 23.6299C39.2397 23.6599 39.1947 23.6973 39.2846 23.5999C39.2621 23.6299 39.2321 23.6599 39.2097 23.6899C39.1647 23.7423 39.1272 23.7948 39.0822 23.8473C38.9098 24.0497 38.7299 24.2371 38.535 24.4245C38.4375 24.5145 38.34 24.6044 38.2351 24.6944C38.1826 24.7394 38.1226 24.7769 38.0777 24.8218C38.1751 24.7244 38.1377 24.7769 38.1002 24.8068C38.0702 24.8293 38.0402 24.8518 38.0027 24.8743C37.7853 25.0317 37.5529 25.1817 37.313 25.3091C37.1031 25.4216 36.9831 25.7139 37.0581 25.9463C37.0881 26.0363 37.1331 26.1263 37.2006 26.1937C37.283 26.2837 37.4704 26.3736 37.5979 26.3587C38.1002 26.2987 38.6024 26.2687 39.1047 26.2837C39.3521 26.2912 39.592 26.3062 39.8394 26.3287C39.8993 26.3362 39.9668 26.3437 40.0268 26.3512C40.0718 26.3587 40.2967 26.3886 40.1017 26.3587C40.2292 26.3811 40.3566 26.3961 40.4841 26.4186C40.9714 26.5011 41.4586 26.621 41.9309 26.771C42.1708 26.8459 42.4107 26.9284 42.6431 27.0259C42.6956 27.0483 42.7406 27.0633 42.793 27.0858C42.823 27.1008 42.853 27.1083 42.883 27.1233C42.7256 27.0633 42.8305 27.1008 42.868 27.1158C42.9879 27.1683 43.1004 27.2208 43.2203 27.2732C43.6776 27.4906 44.12 27.7305 44.5398 28.0004C44.7497 28.1354 44.9521 28.2703 45.147 28.4202C45.1995 28.4577 45.2519 28.4952 45.3044 28.5327C45.3269 28.5552 45.3569 28.5702 45.3794 28.5926C45.2594 28.5027 45.3119 28.5402 45.3419 28.5627C45.4543 28.6526 45.5593 28.7351 45.6643 28.825C46.0391 29.1399 46.3989 29.4847 46.7288 29.8446C46.9012 30.032 47.0661 30.2269 47.231 30.4293C47.261 30.4743 47.2985 30.5118 47.3285 30.5568C47.2085 30.4143 47.351 30.5867 47.3735 30.6242C47.4484 30.7292 47.5234 30.8341 47.5984 30.9391C47.9132 31.3964 48.1981 31.8762 48.438 32.3709C48.498 32.4984 48.5579 32.6258 48.6104 32.7458C48.6554 32.8507 48.5579 32.6183 48.6029 32.7308C48.6179 32.7683 48.6329 32.8132 48.6479 32.8507C48.6704 32.9107 48.6929 32.9707 48.7154 33.0306C48.8203 33.3005 48.9103 33.5779 48.9852 33.8553C49.0677 34.1401 49.3901 34.3426 49.675 34.2451C49.8099 34.2001 49.9448 34.1177 50.0123 33.9902C50.0873 33.8478 50.0947 33.7128 50.0723 33.5554C50.0723 33.5479 50.0498 33.4055 50.0648 33.4954C50.0797 33.5854 50.0573 33.4505 50.0573 33.443C50.0498 33.3905 50.0423 33.338 50.0348 33.2855C50.0198 33.1656 50.0048 33.0456 49.9973 32.9257C49.9823 32.7383 49.9673 32.5509 49.9598 32.3634C49.9523 32.0711 49.9598 31.7712 49.9523 31.4788C49.9523 31.1115 49.9298 30.7517 49.8923 30.3843C49.8624 30.107 49.8249 29.8296 49.7874 29.5522C49.7649 29.3873 49.7424 29.2224 49.7199 29.0499C49.7124 29.02 49.7124 28.99 49.7049 28.96C49.6824 28.8175 49.7199 29.0499 49.7049 28.96C49.6974 28.8775 49.6824 28.8026 49.675 28.7201C49.6075 28.1878 49.5475 27.6481 49.5325 27.1083C49.525 26.8309 49.525 26.5611 49.5475 26.2837C49.555 26.1562 49.5625 26.0213 49.585 25.8939C49.555 26.0513 49.6 25.8189 49.6 25.7889C49.615 25.7139 49.6225 25.6465 49.6375 25.5715C49.6824 25.3391 49.7499 25.1142 49.8249 24.8968C49.8549 24.7994 49.8923 24.7019 49.9298 24.6044C49.9448 24.5595 49.9598 24.5145 49.9823 24.477C49.9898 24.447 50.0048 24.4245 50.0123 24.3945C50.0648 24.2746 49.9898 24.4545 50.0123 24.402C50.1922 24.0047 50.3946 23.6224 50.6345 23.2625C50.702 23.1651 50.7994 23.0601 50.8594 22.9552C50.8519 22.9627 50.777 23.0601 50.8369 22.9852C50.8594 22.9552 50.8819 22.9327 50.9044 22.9027C50.9419 22.8577 50.9794 22.8127 51.0168 22.7678C51.1743 22.5878 51.3392 22.4154 51.5191 22.2505C51.6091 22.168 51.7065 22.0856 51.804 22.0031C51.879 21.9431 51.7815 22.0256 51.774 22.0256C51.804 22.0106 51.8265 21.9806 51.8565 21.9656C51.909 21.9281 51.9614 21.8907 52.0064 21.8532C52.2088 21.7107 52.4187 21.5908 52.6436 21.4783C52.8535 21.3734 52.9735 21.066 52.8985 20.8411C52.816 20.5937 52.6136 20.4438 52.3587 20.4288C52.0963 20.4138 51.834 20.3913 51.5716 20.3613C51.5116 20.3539 51.4516 20.3464 51.3917 20.3389C51.3617 20.3389 51.3317 20.3239 51.3017 20.3239C51.4516 20.3164 51.3542 20.3314 51.3092 20.3239C51.1743 20.3014 51.0393 20.2864 50.9119 20.2639C50.4021 20.1739 49.8999 20.0615 49.4126 19.919C49.1652 19.8441 48.9253 19.7691 48.6854 19.6792C48.5729 19.6342 48.4605 19.5967 48.3405 19.5517C48.3255 19.5442 48.1681 19.4842 48.1681 19.4842C48.1906 19.4917 48.2131 19.5067 48.2356 19.5142C48.2131 19.5067 48.1906 19.4917 48.1681 19.4842C48.1381 19.4692 48.1007 19.4543 48.0707 19.4393C47.5984 19.2294 47.1486 18.9895 46.7138 18.7121C46.4964 18.5697 46.279 18.4272 46.0766 18.2698C46.0541 18.2548 46.0391 18.2398 46.0166 18.2248C46.0391 18.2473 46.144 18.3148 46.0166 18.2248C45.9716 18.1873 45.9191 18.1498 45.8741 18.1124C45.7692 18.0299 45.6717 17.9399 45.5743 17.85C45.3869 17.6776 45.1995 17.4976 45.027 17.3102C44.8471 17.1153 44.6897 16.9054 44.5173 16.7105C44.6222 16.8304 44.4948 16.6805 44.4723 16.643C44.4348 16.5905 44.3973 16.5456 44.3599 16.4931C44.2774 16.3806 44.2024 16.2682 44.1274 16.1557C43.9775 15.9308 43.8426 15.6984 43.7076 15.466C43.4452 15.0013 43.2129 14.5215 42.9955 14.0267C42.988 14.0042 42.973 13.9817 42.9655 13.9592C42.958 13.9367 42.943 13.9142 42.9355 13.8918C42.9655 13.9667 42.973 13.9742 42.9505 13.9217C42.9205 13.8543 42.8905 13.7793 42.8605 13.7118C42.808 13.5769 42.7556 13.442 42.7031 13.307C42.5981 13.0297 42.4932 12.7448 42.3957 12.4674C42.1933 11.8902 42.0059 11.3129 41.8185 10.7357C41.7285 10.4583 41.4212 10.2484 41.1288 10.3459C40.8289 10.4283 40.619 10.7282 40.7165 11.028C41.3912 13.1346 42.0959 15.3086 43.4078 17.1153C44.075 18.0374 44.8771 18.832 45.8217 19.4842C46.7138 20.099 47.7108 20.5638 48.7379 20.9011C49.9073 21.2834 51.1293 21.4933 52.3587 21.5608C52.2613 21.2085 52.1713 20.8636 52.0739 20.5113C50.3721 21.3584 49.1877 23.0451 48.6704 24.8518C48.3556 25.9538 48.3705 27.1008 48.498 28.2253C48.5355 28.5402 48.5729 28.8475 48.6179 29.1624C48.6254 29.2374 48.6404 29.3048 48.6479 29.3798C48.6554 29.4098 48.6554 29.4398 48.6629 29.4698C48.6854 29.6122 48.6479 29.3798 48.6629 29.4772C48.6854 29.6197 48.7004 29.7696 48.7229 29.9121C48.7753 30.3544 48.8278 30.7967 48.8353 31.239C48.8428 31.5763 48.8353 31.9136 48.8428 32.251C48.8578 32.7833 48.9178 33.3155 48.9928 33.8478C49.3526 33.7503 49.7124 33.6454 50.0798 33.5479C49.5025 31.5088 48.303 29.6647 46.7288 28.2628C45.1545 26.8534 43.2054 25.8264 41.1363 25.3991C39.9818 25.1592 38.7824 25.0842 37.6129 25.2342C37.7103 25.5865 37.8003 25.9313 37.8977 26.2837C39.7419 25.2716 40.9863 23.45 41.6386 21.4858C41.9759 20.4663 42.1258 19.4093 42.2083 18.3373C42.3058 17.1528 42.3358 15.9683 42.2908 14.7839C42.2383 13.427 42.0958 12.0701 41.8185 10.7432C41.7585 10.4583 41.4062 10.2634 41.1288 10.3534C40.8064 10.4358 40.6565 10.7207 40.7165 11.028Z" fill="#231F20"/>
</svg>
